<?xml version="1.0" encoding="UTF-8"?> <svg xmlns="http://www.w3.org/2000/svg" xmlns:xlink="http://www.w3.org/1999/xlink" version="1.1" id="Capa_1" x="0px" y="0px" viewBox="0 0 841.1 271.7" style="enable-background:new 0 0 841.1 271.7;" xml:space="preserve"> <style type="text/css"> .st0{fill:#1F2145;} .st1{fill:#0975BA;} .st2{fill:#D21D2B;} .st3{fill:#174281;} </style> <g> <g> <rect y="65.9" class="st0" width="65.9" height="65.9"></rect> <rect x="65.9" class="st1" width="65.9" height="65.9"></rect> <rect x="139.9" y="0" class="st0" width="65.9" height="65.9"></rect> <rect x="205.8" y="65.9" class="st1" width="65.9" height="65.9"></rect> <rect x="205.8" y="139.9" class="st0" width="65.9" height="65.9"></rect> <rect x="139.9" y="205.8" class="st1" width="65.9" height="65.9"></rect> <rect x="65.9" y="205.8" class="st0" width="65.9" height="65.9"></rect> <rect x="0" y="139.9" class="st1" width="65.9" height="65.9"></rect> <circle class="st2" cx="135.9" cy="135.9" r="12.2"></circle> <path class="st3" d="M131.8,117.3V65.9H65.9v65.9h51.4C119.2,124.8,124.8,119.2,131.8,117.3z"></path> <path class="st3" d="M139.9,65.9v51.4c7.1,1.9,12.6,7.5,14.5,14.5h51.4V65.9L139.9,65.9L139.9,65.9z"></path> <path class="st3" d="M154.4,139.9c-1.9,7.1-7.5,12.6-14.5,14.5v51.4h65.9v-65.9H154.4z"></path> <path class="st3" d="M117.3,139.9H65.9v65.9h65.9v-51.4C124.8,152.5,119.2,147,117.3,139.9z"></path> </g> <g> <g> <g> <path class="st0" d="M364.2,65.9l38.1,85.8h-23l-7.1-17h-38.4l-6.4,17h-22.7l34.7-85.8H364.2z M366,119.8l-13.9-33.4l-12.6,33.4 H366z"></path> <path class="st0" d="M483.1,65.9l-39.7,86.9h-9.3l-41.6-87h23.3l22.7,49l21.5-49L483.1,65.9L483.1,65.9z"></path> <path class="st0" d="M532.8,65.9l38.1,85.8h-23l-7.1-17h-38.4l-6.4,17h-22.7L508,65.9H532.8z M534.6,119.8l-13.9-33.4 l-12.6,33.4H534.6z"></path> <path class="st0" d="M667.8,65.9v85.8h-18.1l-47.4-55v55h-21.4V65.9h19.6l45.8,52.5V65.9H667.8z"></path> <path class="st0" d="M764.5,65.9v15.7h-31.1v70.1h-21.4V81.7H681V65.9H764.5z"></path> <path class="st0" d="M841.1,136v15.7h-63.3V65.9h62.4v15.7h-41.1v18h39.1v15.7h-39.1V136H841.1z"></path> </g> </g> <g> <path class="st0" d="M338.4,176c-4-2.3-8.5-3.8-13.1-3.8c-9.2,0-15,6.8-15,14.3c0,7,5,14.2,15,14.2c4.8,0,9.4-1.6,13.4-4.2v5.9 c-4.4,2.4-8.9,3.3-13.8,3.3c-14,0-20.3-10.5-20.3-19.3c0-10.4,8.5-19.5,20.5-19.5c5.8,0,10.8,2,13.2,3.1L338.4,176L338.4,176z"></path> <path class="st0" d="M371.3,193c0,8.9-7.2,12.9-13.4,12.9c-8,0-13.2-5.9-13.2-13c0-7,5.1-12.9,13.4-12.9 C365.5,180,371.3,185.1,371.3,193z M349.8,192.9c0,6.3,4.7,8.5,8.3,8.5c4.9,0,8.2-3.5,8.2-8.5c0-6.3-4.9-8.5-8.4-8.5 C353.4,184.4,349.8,187.5,349.8,192.9z"></path> <path class="st0" d="M382.8,180.5v3.3c2.9-2.9,4.9-3.8,7.4-3.8c3,0,5.7,1.6,7.3,4.5c3.2-3.2,5.3-4.5,8.2-4.5 c5.4,0,8.3,3.5,8.3,9.9v15.5h-4.9v-15.2c0-3.9-1.9-6-5.2-6c-1.9,0-4.1,1.3-5.6,3.1v18.1h-4.9v-14.9c0-3.3-0.8-6.3-4.9-6.3 c-2.3,0-4.2,1.2-5.8,3.2v18.1H378v-24.9L382.8,180.5L382.8,180.5z"></path> <path class="st0" d="M430.6,180.5c0.3,0,5.5,0,8.9,2.1c4.4,2.8,5.2,7.9,5.2,10.4c0,7.3-4.9,12.9-12.4,12.9 c-2.5,0-4.1-0.7-5.3-1.1v13.4h-5v-37.6L430.6,180.5L430.6,180.5z M427,185.1v15.3c2.3,1.2,4.3,1.2,4.8,1.2c4.4,0,7.8-3.3,7.8-8.6 c0-7.9-6.7-7.9-9.1-7.9L427,185.1L427,185.1z"></path> <path class="st0" d="M456.5,205.4h-4.9v-37.8h4.9V205.4z"></path> <path class="st0" d="M485.7,202.9c-1.7,1.1-4.5,2.9-9.8,2.9c-2.6,0-5.6-0.4-8.6-3.5c-3.3-3.4-3.7-7.2-3.7-9.6 c0-7.8,4.9-12.8,11.6-12.8c5.8,0,9.8,4.2,10.6,9.6c0.3,1.7,0.3,2.8,0.3,3.7h-17.5c0.2,3.7,2.6,7.8,8,7.8c3.2,0,6.4-1.1,9-3 L485.7,202.9L485.7,202.9z M481.3,190.4c-0.1-1-0.4-6.2-6-6.2c-1.5,0-3.4,0.6-4.8,2.1c-1.3,1.4-1.5,2.9-1.7,4L481.3,190.4 L481.3,190.4z"></path> <path class="st0" d="M497.8,206.9c0,4.4,0,8.5-5,11.2l-3.7-3.6c1.8-0.6,2.6-1.9,2.9-2.3c0.8-1.4,0.8-2.4,0.8-5.6v-26.1h5 L497.8,206.9L497.8,206.9z M498.1,172.9c0,1.5-1.1,2.9-2.9,2.9c-1.9,0-2.9-1.8-2.9-2.9c0-1.4,1.2-2.9,2.9-2.9 C496.5,170,498.1,171,498.1,172.9z"></path> <path class="st0" d="M531.5,193c0,8.9-7.2,12.9-13.4,12.9c-8,0-13.2-5.9-13.2-13c0-7,5.1-12.9,13.4-12.9 C525.8,180,531.5,185.1,531.5,193z M510,192.9c0,6.3,4.7,8.5,8.3,8.5c4.9,0,8.2-3.5,8.2-8.5c0-6.3-4.9-8.5-8.4-8.5 C513.6,184.4,510,187.5,510,192.9z"></path> <path class="st0" d="M588,205.4h-5.5v-16.5h-21.2v16.5h-5.4v-37.8h5.4v16.3h21.2v-16.3h5.5V205.4z"></path> <path class="st0" d="M622.1,193c0,8.9-7.2,12.9-13.4,12.9c-8,0-13.2-5.9-13.2-13c0-7,5.1-12.9,13.4-12.9 C616.3,180,622.1,185.1,622.1,193z M600.5,192.9c0,6.3,4.7,8.5,8.3,8.5c4.9,0,8.2-3.5,8.2-8.5c0-6.3-4.9-8.5-8.4-8.5 C604.2,184.4,600.5,187.5,600.5,192.9z"></path> <path class="st0" d="M643.4,186.9c-2.8-1.7-4.9-2.7-7.2-2.7c-2.3,0-3.2,1.3-3.2,2.2c0,1.6,1.7,2.5,5.4,4.5 c3.6,1.9,6.2,4.5,6.2,7.8c0,2.3-1.8,7-8.5,7c-3.5,0-5.8-1-8.3-2.3v-5.3c3.6,2.4,6.6,3.3,7.9,3.3c1.6,0,3.8-0.9,3.8-2.5 c0-1.8-1.5-2.6-3.8-3.9c-4.1-2.3-7.7-4.5-7.7-8.7c0-3.7,3.2-6.5,7.9-6.5c3.7,0,6.4,1.4,7.5,2L643.4,186.9L643.4,186.9z"></path> <path class="st0" d="M660,180.5c0.3,0,5.5,0,8.9,2.1c4.4,2.8,5.2,7.9,5.2,10.4c0,7.3-4.9,12.9-12.4,12.9c-2.6,0-4.1-0.7-5.3-1.1 v13.4h-5v-37.6L660,180.5L660,180.5z M656.4,185.1v15.3c2.3,1.2,4.3,1.2,4.8,1.2c4.4,0,7.8-3.3,7.8-8.6c0-7.9-6.7-7.9-9.1-7.9 L656.4,185.1L656.4,185.1z"></path> <path class="st0" d="M686.3,172.9c0,1.5-1.3,2.9-2.9,2.9c-1.9,0-2.9-1.7-2.9-2.9c0-1.4,1.2-2.9,2.9-2.9S686.3,171.3,686.3,172.9z M685.9,205.4h-4.9v-24.9h4.9V205.4z"></path> <path class="st0" d="M700.1,180.5h7.9v4.4h-7.9v10.9c0.1,3.1,0.1,3.7,0.9,4.5c0.9,1,2.2,1,2.7,1c1,0,2.9-0.1,5.6-1.8v4.6 c-2.3,1.3-4.9,1.7-6.4,1.7c-1.7,0-4.8-0.7-6.5-3.2c-1.2-1.8-1.2-4.5-1.2-6.8v-11h-4.3v-0.5l9.3-9.1L700.1,180.5L700.1,180.5z"></path> <path class="st0" d="M735.6,203.9c-2.3,1.5-3.2,1.9-4.8,1.9c-2.2,0-3.3-0.8-3.8-2.5c-2.2,1.7-4.4,2.5-6.7,2.5 c-3.7,0-6.1-2.9-6.1-6.1c0-4.9,4.5-6.4,8.5-7.9l4.4-1.5V189c0-3.1-1.5-4.4-4.5-4.4c-2.7,0-5.5,1.3-7.9,4.1v-5.4 c1.9-2.3,4.7-3.4,8.3-3.4c5,0,9,2.5,9,8.2V201c0,0.9,0.3,1.3,0.9,1.3c0.5,0,1.5-0.5,2.6-1.3L735.6,203.9L735.6,203.9z M727.1,193.1c-4.2,1.4-7.9,2.9-7.9,5.8c0,2,1.5,3.5,3.6,3.5c1.6,0,3-0.8,4.3-2V193.1z"></path> <path class="st0" d="M746.2,205.4h-4.9v-37.8h4.9V205.4z"></path> <path class="st0" d="M774.1,203.9c-2.3,1.5-3.2,1.9-4.8,1.9c-2.2,0-3.3-0.8-3.8-2.5c-2.2,1.7-4.4,2.5-6.7,2.5 c-3.7,0-6.1-2.9-6.1-6.1c0-4.9,4.5-6.4,8.5-7.9l4.4-1.5V189c0-3.1-1.5-4.4-4.5-4.4c-2.7,0-5.5,1.3-7.9,4.1v-5.4 c1.9-2.3,4.7-3.4,8.3-3.4c5,0,9,2.5,9,8.2V201c0,0.9,0.3,1.3,0.9,1.3c0.5,0,1.5-0.5,2.6-1.3L774.1,203.9L774.1,203.9z M765.7,193.1c-4.2,1.4-7.9,2.9-7.9,5.8c0,2,1.5,3.5,3.6,3.5c1.6,0,3-0.8,4.3-2V193.1z"></path> <path class="st0" d="M784.4,180.5v5.7c1.6-2.5,3.9-6.2,7.4-6.2c0.7,0,2.9,0.1,5.8,2.8l-2.6,4.3c-0.6-0.6-2.8-2.4-4.8-2.4 c-1.8,0-5.9,2-5.9,7.7v13h-4.9v-24.9L784.4,180.5L784.4,180.5z"></path> <path class="st0" d="M808,172.9c0,1.5-1.3,2.9-2.9,2.9c-1.9,0-2.9-1.7-2.9-2.9c0-1.4,1.2-2.9,2.9-2.9S808,171.3,808,172.9z M807.5,205.4h-4.9v-24.9h4.9V205.4z"></path> <path class="st0" d="M841.1,193c0,8.9-7.2,12.9-13.4,12.9c-8,0-13.2-5.9-13.2-13c0-7,5.1-12.9,13.4-12.9 C835.4,180,841.1,185.1,841.1,193z M819.6,192.9c0,6.3,4.7,8.5,8.3,8.5c4.9,0,8.2-3.5,8.2-8.5c0-6.3-4.9-8.5-8.4-8.5 C823.2,184.4,819.6,187.5,819.6,192.9z"></path> </g> </g> </g> <rect x="178.6" y="-253.8" style="fill:none;" width="3" height="0"></rect> </svg> 